<?xml version="1.0" standalone="no"?>
<!DOCTYPE svg PUBLIC "-//W3C//DTD SVG 20010904//EN"
 "http://www.w3.org/TR/2001/REC-SVG-20010904/DTD/svg10.dtd">
<svg version="1.0" xmlns="http://www.w3.org/2000/svg"
 width="144.000000pt" height="72.000000pt" viewBox="0 0 144.000000 72.000000"
 preserveAspectRatio="xMidYMid meet">
<metadata>
Created by potrace 1.10, written by Peter Selinger 2001-2011
</metadata>
<g transform="translate(0.000000,72.000000) scale(0.100000,-0.100000)"
fill="#000000" stroke="none">
<path d="M855 430 c-3 -5 1 -10 10 -10 9 0 13 5 10 10 -3 6 -8 10 -10 10 -2 0
-7 -4 -10 -10z"/>
<path d="M193 413 c-4 -11 1 -22 15 -31 28 -18 29 -36 2 -29 -23 6 -28 -8 -6
-16 21 -8 48 16 41 35 -4 9 -16 19 -28 23 -20 7 -20 8 8 14 25 5 27 8 12 14
-28 11 -37 9 -44 -10z"/>
<path d="M554 408 c14 -20 14 -24 1 -45 -9 -13 -11 -23 -5 -23 6 0 13 7 17 16
5 14 9 13 24 -7 13 -17 19 -20 19 -8 0 8 -6 21 -12 27 -10 10 -10 17 0 33 17
26 6 39 -11 14 -13 -16 -14 -16 -20 -1 -4 9 -11 16 -17 16 -7 0 -5 -9 4 -22z"/>
<path d="M702 385 c0 -39 2 -44 7 -21 7 36 27 36 23 1 -2 -14 2 -25 8 -25 7 0
10 13 8 33 -2 20 -8 32 -18 32 -8 0 -18 7 -22 15 -4 8 -6 -7 -6 -35z"/>
<path d="M1060 385 c0 -44 0 -45 33 -44 23 1 26 3 10 6 -19 4 -23 11 -23 44 0
21 -4 39 -10 39 -5 0 -10 -20 -10 -45z"/>
<path d="M1130 385 c0 -44 0 -45 33 -44 23 1 26 3 10 6 -19 4 -23 11 -23 44 0
21 -4 39 -10 39 -5 0 -10 -20 -10 -45z"/>
<path d="M1207 412 c-10 -10 -17 -24 -17 -30 0 -20 39 -52 55 -46 23 9 18 21
-7 20 -33 -1 -33 48 0 52 12 2 20 8 17 13 -10 14 -30 11 -48 -9z"/>
<path d="M487 412 c-3 -4 -3 -19 0 -34 6 -32 28 -54 38 -38 3 5 1 10 -4 10
-15 0 -14 37 2 43 9 4 8 8 -3 16 -18 13 -27 14 -33 3z"/>
<path d="M261 372 l1 -37 8 30 8 30 1 -27 c0 -16 6 -28 11 -28 6 0 11 12 11
28 l1 27 8 -30 8 -30 1 36 c1 33 -1 36 -29 37 -28 1 -30 -1 -29 -36z"/>
<path d="M340 400 c0 -5 8 -10 18 -11 13 0 12 -2 -5 -9 -36 -15 -24 -42 19
-45 24 -2 26 60 2 69 -23 9 -34 7 -34 -4z m30 -40 c0 -5 -4 -10 -10 -10 -5 0
-10 5 -10 10 0 6 5 10 10 10 6 0 10 -4 10 -10z"/>
<path d="M414 374 c1 -27 5 -34 21 -34 15 0 17 2 6 9 -8 5 -11 16 -8 26 4 9
11 13 17 10 5 -3 10 0 10 8 0 8 -10 15 -23 15 -20 0 -23 -5 -23 -34z"/>
<path d="M630 395 c-24 -29 10 -74 41 -54 11 7 9 9 -8 9 -16 0 -23 6 -23 20 0
14 7 20 21 20 11 0 17 5 14 10 -9 14 -31 12 -45 -5z"/>
<path d="M770 400 c0 -5 8 -10 18 -11 13 0 12 -2 -5 -9 -36 -15 -24 -42 19
-45 24 -2 26 60 2 69 -23 9 -34 7 -34 -4z m30 -40 c0 -5 -4 -10 -10 -10 -5 0
-10 5 -10 10 0 6 5 10 10 10 6 0 10 -4 10 -10z"/>
<path d="M840 401 c0 -6 5 -11 10 -11 14 0 12 -37 -2 -43 -7 -3 3 -6 22 -6 19
0 30 3 24 7 -7 4 -14 18 -15 32 -4 24 -39 43 -39 21z"/>
<path d="M910 373 c0 -18 5 -33 10 -33 6 0 10 11 10 25 0 14 5 25 10 25 6 0
10 -11 10 -25 0 -14 5 -25 10 -25 12 0 13 40 2 57 -4 7 -18 11 -30 10 -18 -1
-22 -7 -22 -34z"/>
</g>
</svg>
